PathFileType	4	(X/Y/Z)	Walk4.trc
DataRate	CameraRate	NumFrames	NumMarkers	Units	OrigDataRate	OrigDataStartFrame	OrigNumFrames
200.000000	200.000000	4	61	mm	200.000000	796	877
Frame#	Times		RCAR		LTH3		RTH2		LBHD		LWRU		LUA1		LFA1		LCAR		RFA1		LElbow		RTB3		RTB1		RToe		RTB2		RMT5		RBHD		LWRR		LTH2		LElbowM		RPSI		C7		RLFC		RMT1		LTH4		STRN		LASI		RLMAL		RBack		T10		LTH1		LPSI		CLAV		LLFC		RUA1		LACR1		RCAL		LTB3		RElbowM		RTH3		LCAL		RTH1		RFHD		RElbow		LTB1		LMMAL		LTB2		LFHD		RTH4		RASI		LMFC		LTB4		RMMAL		LMT5		RMFC		RACR1		RWRR		RWRU		LLMAL		RTB4		LToe		LMT1
			X1	Y1	Z1	X2	Y2	Z2	X3	Y3	Z3	X4	Y4	Z4	X5	Y5	Z5	X6	Y6	Z6	X7	Y7	Z7	X8	Y8	Z8	X9	Y9	Z9	X10	Y10	Z10	X11	Y11	Z11	X12	Y12	Z12	X13	Y13	Z13	X14	Y14	Z14	X15	Y15	Z15	X16	Y16	Z16	X17	Y17	Z17	X18	Y18	Z18	X19	Y19	Z19	X20	Y20	Z20	X21	Y21	Z21	X22	Y22	Z22	X23	Y23	Z23	X24	Y24	Z24	X25	Y25	Z25	X26	Y26	Z26	X27	Y27	Z27	X28	Y28	Z28	X29	Y29	Z29	X30	Y30	Z30	X31	Y31	Z31	X32	Y32	Z32	X33	Y33	Z33	X34	Y34	Z34	X35	Y35	Z35	X36	Y36	Z36	X37	Y37	Z37	X38	Y38	Z38	X39	Y39	Z39	X40	Y40	Z40	X41	Y41	Z41	X42	Y42	Z42	X43	Y43	Z43	X44	Y44	Z44	X45	Y45	Z45	X46	Y46	Z46	X47	Y47	Z47	X48	Y48	Z48	X49	Y49	Z49	X50	Y50	Z50	X51	Y51	Z51	X52	Y52	Z52	X53	Y53	Z53	X54	Y54	Z54	X55	Y55	Z55	X56	Y56	Z56	X57	Y57	Z57	X58	Y58	Z58	X59	Y59	Z59	X60	Y60	Z60	X61	Y61	Z61

796	3.98	847.58	903.17	278.4	690.12	615.76	-147.65	621.65	677.38	178.97	558.42	1629.8	-89.674	486	838.13	-255.98	525.2	1273.5	-260.89	475.58	971.31	-272.58	547.83	783.96	-256.24	695.72	1005.1	305.36	478.89	1122.5	-271.15	327.66	222.86	113.35	461.94	352.79	127.78	332.43	28.801	124.39	369.86	299.69	183.53	245.74	49.128	175.68	569.17	1641.2	51.738	552.38	840.31	-206.51	726.3	727.45	-140.04	445.88	1123.1	-200.81	433.76	1012.1	57.155	534.44	1501.7	-9.6729	489.35	487.29	193.89	291.38	41.166	102.03	662.63	703.37	-163.62	712.02	1241.1	-10.204	644.85	1023.7	-129.5	209.91	158.86	151.55	465.88	1418.7	131.91	429.72	1278.9	5.1426	637.5	792.12	-176.45	432.09	1007.4	-20.694	666.43	1413.6	-13.268	710.45	517.25	-138.33	618.53	1293.4	251.94	593.35	1447.5	-178.91	150.62	167.6	97.855	759.92	199.59	-61.241	576.18	1110.6	231.4	532.54	598.08	197.99	660.36	28.138	-66.055	569.93	784.42	206.18	744.56	1675	14.766	612.1	1137.7	301.49	767.26	385.64	-60.014	745.78	90.435	-24.387	744.96	297.53	-132.72	739.24	1670.1	-61.774	554.05	689.65	205.51	639.26	1028.1	158.31	717.38	524.24	-8.4562	763.76	295.68	-59.566	255.13	156.41	74.461	820.07	21.506	-138.95	516.33	489.83	66.212	619.98	1457.7	145.94	818.32	935.36	227.6	779.59	899.6	286.36	721.14	69.279	-106.64	394.84	287.37	119.05	919.15	32.181	-67.621	866.59	39.091	-53.489
797	3.985	849.33	901.59	278.71	694.94	616.2	-148.21	629.8	677.78	179.13	563.58	1630.4	-90.665	493.73	838.52	-257.76	531.66	1274	-262.02	482.98	971.69	-274.25	555.75	784.55	-257.86	698.17	1004.9	304.66	485.83	1122.8	-272.64	335.01	224.77	113.92	471.37	352.72	128.21	334.41	29.421	124.96	378.03	301.17	183.88	249.14	51.951	175.79	574.31	1641.9	50.743	559.88	840.82	-207.99	731.59	727.73	-140.45	452.53	1123.3	-202.44	439.17	1012.4	56.186	539.58	1502.3	-10.651	499.52	486.81	194.34	294.3	42.338	102.32	667.86	703.94	-164.22	717.46	1241.8	-10.856	650.67	1024.5	-130.35	216.12	162.69	151.73	470.93	1419.4	130.93	435.13	1279.3	4.1178	643.21	792.79	-177.12	437.76	1007.9	-21.714	671.69	1414.3	-14.017	714.59	517.36	-138.73	622.94	1293.8	250.89	598.94	1448.1	-179.71	157.44	172.94	97.704	761.16	199.35	-61.226	579.92	1111.4	229.86	541.62	597.48	198.24	660.38	28.135	-66.093	576.72	784.3	205.8	749.71	1675.6	13.752	615.64	1138.1	300.21	770.29	385.37	-60.246	745.9	90.367	-24.243	747.25	297.38	-132.84	744.38	1670.7	-62.774	562.01	689.34	205.51	644.93	1028.8	157.11	722.09	524.54	-8.939	765.92	295.43	-59.662	261.66	159.24	74.887	820.05	21.607	-138.98	527.46	488.8	66.84	624.97	1458.3	145.1	820.64	934.04	227.76	781.36	898.64	286.32	721.3	69.339	-106.56	403.08	288.36	119.71	919.34	31.929	-67.557	866.68	39.142	-53.488
798	3.99	850.98	899.98	279.05	699.46	616.56	-148.77	637.95	678.25	179.33	568.72	1631	-91.615	501.58	838.96	-259.55	538.15	1274.5	-263.15	490.46	972.1	-275.93	563.79	785.2	-259.48	700.57	1004.7	303.97	492.8	1123.2	-274.14	342.61	226.72	114.45	481.01	352.68	128.58	336.94	30.195	125.65	386.43	302.69	184.21	253.02	54.931	175.97	579.44	1642.6	49.789	567.52	841.4	-209.5	736.71	727.89	-140.91	459.21	1123.5	-204.08	444.53	1012.7	55.195	544.69	1502.8	-11.6	509.78	486.39	194.78	297.74	43.72	102.69	672.86	704.45	-164.81	722.86	1242.6	-11.464	656.42	1025.4	-131.14	222.64	166.49	151.9	475.94	1420	129.96	440.51	1279.7	3.0929	648.77	793.43	-177.79	443.37	1008.5	-22.75	676.93	1415.1	-14.726	718.45	517.42	-139.13	627.3	1294.3	249.87	604.53	1448.7	-180.48	164.54	178.15	97.567	762.33	199.11	-61.243	583.63	1112.2	228.31	550.75	596.94	198.49	660.38	28.119	-66.125	583.49	784.22	205.44	754.85	1676.2	12.769	619.16	1138.5	298.94	773.15	385.09	-60.505	746	90.3	-24.114	749.34	297.21	-132.98	749.51	1671.2	-63.741	569.98	689.07	205.52	650.63	1029.5	155.92	726.54	524.77	-9.4305	767.96	295.16	-59.784	268.45	162.08	75.28	820.03	21.709	-139	538.67	487.89	67.433	629.91	1459	144.3	822.86	932.69	227.96	783.03	897.66	286.27	721.42	69.392	-106.5	411.52	289.4	120.32	919.48	31.768	-67.507	866.72	39.215	-53.488
799	3.995	852.52	898.35	279.4	703.69	616.85	-149.31	646.1	678.8	179.56	573.85	1631.6	-92.523	509.55	839.44	-261.35	544.66	1275	-264.26	498.02	972.54	-277.61	571.96	785.91	-261.09	702.9	1004.6	303.3	499.8	1123.7	-275.65	350.43	228.71	114.93	490.84	352.69	128.91	340.09	31.137	126.44	395.04	304.24	184.5	257.39	58.045	176.22	584.56	1643.4	48.875	575.28	842.05	-211.02	741.64	727.94	-141.42	465.9	1123.7	-205.75	449.84	1013	54.186	549.77	1503.4	-12.516	520.12	486.05	195.2	301.73	45.302	103.16	677.64	704.9	-165.38	728.22	1243.4	-12.028	662.12	1026.2	-131.88	229.47	170.25	152.05	480.9	1420.7	129.01	445.86	1280.2	2.0691	654.18	794.02	-178.44	448.93	1009.1	-23.8	682.13	1415.8	-15.393	722.04	517.44	-139.53	631.61	1294.8	248.87	610.11	1449.4	-181.21	171.9	183.18	97.44	763.41	198.87	-61.291	587.32	1113	226.75	559.89	596.46	198.73	660.36	28.094	-66.154	590.22	784.17	205.11	759.98	1676.9	11.822	622.66	1139	297.68	775.85	384.8	-60.791	746.08	90.236	-23.998	751.26	297.03	-133.12	754.63	1671.8	-64.674	577.95	688.85	205.55	656.34	1030.3	154.75	730.7	524.94	-9.9273	769.88	294.89	-59.934	275.51	164.92	75.632	820	21.805	-139.01	549.92	487.13	67.979	634.8	1459.7	143.54	824.98	931.32	228.19	784.59	896.66	286.2	721.49	69.436	-106.44	420.15	290.5	120.85	919.57	31.678	-67.469	866.74	39.299	-53.488
